<?xml version="1.0" encoding="utf-8"?><svg viewBox="0 0 20 20" xmlns="http://www.w3.org/2000/svg" xmlns:xlink="http://www.w3.org/1999/xlink"><style>:root>svg{display:none}:root>svg:target{display:block}</style><svg fill="none" viewBox="0 0 20 20" id="arrow" xmlns="http://www.w3.org/2000/svg"><path d="M8.333 15.832a.833.833 0 01-.642-1.367L11.425 10l-3.6-4.475a.833.833 0 01.125-1.175.833.833 0 011.216.125l4.025 5a.834.834 0 010 1.058l-4.166 5a.832.832 0 01-.692.3z" fill="#fff"/></svg><svg fill="none" viewBox="0 0 8 8" id="ellipse" xmlns="http://www.w3.org/2000/svg"><circle cx="4" cy="4" r="4" fill="#fff"/></svg><svg fill="none" viewBox="0 0 6 12" id="icon-arrow" xmlns="http://www.w3.org/2000/svg"><path d="M5.498 6.02a.751.751 0 01-.164.472l-3.57 4.422a.7.7 0 01-1.007.096.754.754 0 01-.093-1.039l3.2-3.95L.778 2.07a.745.745 0 01-.155-.542.754.754 0 01.262-.497A.709.709 0 011.43.85a.698.698 0 01.5.287l3.448 4.42c.09.137.132.3.121.465z" fill="#DD9860"/></svg></svg>