<svg width="20" height="20" viewBox="0 0 20 20" fill="none" xmlns="http://www.w3.org/2000/svg">
<path d="M8.33285 15.8318C8.13814 15.8322 7.94944 15.7644 7.79951 15.6402C7.71513 15.5702 7.64538 15.4843 7.59425 15.3873C7.54313 15.2904 7.51163 15.1843 7.50157 15.0752C7.4915 14.966 7.50307 14.8559 7.53561 14.7513C7.56815 14.6466 7.62101 14.5494 7.69118 14.4652L11.4245 9.99851L7.82451 5.52351C7.75529 5.43827 7.7036 5.34019 7.67241 5.2349C7.64121 5.12962 7.63113 5.01921 7.64275 4.91002C7.65437 4.80083 7.68745 4.69501 7.74009 4.59865C7.79274 4.50228 7.86391 4.41727 7.94951 4.34851C8.03574 4.27264 8.13671 4.21542 8.24609 4.18043C8.35548 4.14544 8.47091 4.13343 8.58516 4.14517C8.6994 4.15691 8.80999 4.19213 8.90997 4.24864C9.00996 4.30514 9.09719 4.3817 9.16618 4.47351L13.1912 9.47351C13.3137 9.62262 13.3808 9.80965 13.3808 10.0027C13.3808 10.1957 13.3137 10.3827 13.1912 10.5318L9.02451 15.5318C8.94092 15.6327 8.83472 15.7124 8.71455 15.7645C8.59437 15.8167 8.4636 15.8397 8.33285 15.8318Z" fill="white"/>
</svg>
