<svg width="6" height="12" viewBox="0 0 6 12" fill="none" xmlns="http://www.w3.org/2000/svg">
<path d="M5.49831 6.02086C5.49864 6.19303 5.44054 6.35988 5.33411 6.49244L1.76453 10.9135C1.64335 11.064 1.46921 11.1586 1.28044 11.1766C1.09166 11.1945 0.903697 11.1344 0.757904 11.0093C0.61211 10.8842 0.520426 10.7045 0.503021 10.5097C0.485616 10.3148 0.543915 10.1208 0.665095 9.97034L3.86344 6.02086L0.779322 2.07138C0.72002 1.99601 0.675734 1.90929 0.649011 1.8162C0.622288 1.72311 0.613654 1.62548 0.623605 1.52893C0.633557 1.43239 0.661897 1.33882 0.706998 1.25361C0.752099 1.16841 0.813071 1.09324 0.886409 1.03243C0.959815 0.964955 1.04593 0.913848 1.13937 0.882317C1.2328 0.850785 1.33153 0.839509 1.42938 0.849194C1.52724 0.858878 1.6221 0.889314 1.70802 0.938597C1.79395 0.987879 1.86908 1.05495 1.92873 1.13559L5.37695 5.55665C5.46655 5.69303 5.50928 5.85647 5.49831 6.02086V6.02086Z" fill="#DD9860"/>
</svg>
